<svg xmlns="http://www.w3.org/2000/svg" viewBox="0 0 320 64" width="320" height="64">
  <!-- Background -->
  <rect width="320" height="64" rx="12" fill="#000000"/>

  <!-- Mark: Gauge icon (left, inset) -->
  <!-- Gauge track arc -->
  <path d="M 12 50 A 22 22 0 1 1 52 50" stroke="#1a1a1a" stroke-width="5" fill="none" stroke-linecap="round"/>
  <!-- Green zone -->
  <path d="M 12 50 A 22 22 0 0 1 18.2 30.4" stroke="#22C55E" stroke-width="5" fill="none" stroke-linecap="round"/>
  <!-- Yellow zone -->
  <path d="M 18.2 30.4 A 22 22 0 0 1 45.8 30.4" stroke="#F59E0B" stroke-width="5" fill="none" stroke-linecap="round"/>
  <!-- Red zone -->
  <path d="M 45.8 30.4 A 22 22 0 0 1 52 50" stroke="#EF4444" stroke-width="5" fill="none" stroke-linecap="round"/>
  <!-- Needle -->
  <line x1="32" y1="38" x2="21" y2="27" stroke="#FFFFFF" stroke-width="2.5" stroke-linecap="round"/>
  <!-- Pivot -->
  <circle cx="32" cy="38" r="3" fill="#22C55E"/>

  <!-- Divider line -->
  <line x1="68" y1="12" x2="68" y2="52" stroke="#1f1f1f" stroke-width="1"/>

  <!-- Wordmark: "cc-context" on top row, "stats" accent -->
  <!-- Primary text -->
  <text x="82" y="30" font-family="'SF Mono', 'Fira Mono', 'Courier New', monospace" font-size="18" font-weight="700" fill="#FFFFFF" letter-spacing="-0.5">cc-context</text>
  <!-- Accent text with green highlight -->
  <text x="82" y="50" font-family="'SF Mono', 'Fira Mono', 'Courier New', monospace" font-size="14" font-weight="500" fill="#22C55E" letter-spacing="2">stats</text>

  <!-- Subtle border accent on right -->
  <rect x="308" y="16" width="2" height="32" rx="1" fill="#22C55E" opacity="0.6"/>
</svg>
